<mxfile host="app.diagrams.net" modified="2024-08-16T07:15:39.138Z" agent="Mozilla/5.0 (Windows NT 10.0; Win64; x64) AppleWebKit/537.36 (KHTML, like Gecko) Chrome/127.0.0.0 Safari/537.36 Edg/127.0.0.0" version="24.7.1" etag="JMLU7Fy83EJWWRqzl38M" type="github">
  <diagram name="第 1 页" id="LyyMd3wYEGsGenm0caD8">
    <mxGraphModel>
      <root>
        <mxCell id="0" />
        <mxCell id="1" parent="0" />
      </root>
    </mxGraphModel>
  </diagram>
</mxfile>
